<!-- Generated by IcoMoon.io -->
<svg version="1.1" xmlns="http://www.w3.org/2000/svg" width="15" height="16" viewBox="0 0 15 16">
<path d="M13 10.857c0-0.232-0.089-0.446-0.25-0.607l-1.857-1.857c-0.161-0.161-0.384-0.25-0.607-0.25-0.259 0-0.464 0.098-0.643 0.286 0.295 0.295 0.643 0.545 0.643 1 0 0.473-0.384 0.857-0.857 0.857-0.455 0-0.705-0.348-1-0.643-0.188 0.179-0.295 0.384-0.295 0.652 0 0.223 0.089 0.446 0.25 0.607l1.839 1.848c0.161 0.161 0.384 0.241 0.607 0.241s0.446-0.080 0.607-0.232l1.313-1.304c0.161-0.161 0.25-0.375 0.25-0.598zM6.723 4.563c0-0.223-0.089-0.446-0.25-0.607l-1.839-1.848c-0.161-0.161-0.384-0.25-0.607-0.25s-0.446 0.089-0.607 0.241l-1.313 1.304c-0.161 0.161-0.25 0.375-0.25 0.598 0 0.232 0.089 0.446 0.25 0.607l1.857 1.857c0.161 0.161 0.384 0.241 0.607 0.241 0.259 0 0.464-0.089 0.643-0.277-0.295-0.295-0.643-0.545-0.643-1 0-0.473 0.384-0.857 0.857-0.857 0.455 0 0.705 0.348 1 0.643 0.188-0.179 0.295-0.384 0.295-0.652zM14.714 10.857c0 0.679-0.277 1.339-0.759 1.813l-1.313 1.304c-0.482 0.482-1.134 0.741-1.813 0.741-0.688 0-1.339-0.268-1.821-0.759l-1.839-1.848c-0.482-0.482-0.741-1.134-0.741-1.813 0-0.705 0.286-1.375 0.786-1.866l-0.786-0.786c-0.491 0.5-1.152 0.786-1.857 0.786-0.679 0-1.339-0.268-1.821-0.75l-1.857-1.857c-0.491-0.491-0.75-1.134-0.75-1.821 0-0.679 0.277-1.339 0.759-1.813l1.313-1.304c0.482-0.482 1.134-0.741 1.813-0.741 0.688 0 1.339 0.268 1.821 0.759l1.839 1.848c0.482 0.482 0.741 1.134 0.741 1.813 0 0.705-0.286 1.375-0.786 1.866l0.786 0.786c0.491-0.5 1.152-0.786 1.857-0.786 0.679 0 1.339 0.268 1.821 0.75l1.857 1.857c0.491 0.491 0.75 1.134 0.75 1.821z"></path>
</svg>
