<!-- Generated by IcoMoon.io -->
<svg version="1.1" xmlns="http://www.w3.org/2000/svg" width="16" height="16" viewBox="0 0 16 16">
<path d="M14.92 5.054c0 0.223-0.089 0.446-0.25 0.607l-7.679 7.679c-0.161 0.161-0.384 0.25-0.607 0.25s-0.446-0.089-0.607-0.25l-4.446-4.446c-0.161-0.161-0.25-0.384-0.25-0.607s0.089-0.446 0.25-0.607l1.214-1.214c0.161-0.161 0.384-0.25 0.607-0.25s0.446 0.089 0.607 0.25l2.625 2.634 5.857-5.866c0.161-0.161 0.384-0.25 0.607-0.25s0.446 0.089 0.607 0.25l1.214 1.214c0.161 0.161 0.25 0.384 0.25 0.607z"></path>
</svg>
