<!-- Generated by IcoMoon.io -->
<svg version="1.1" xmlns="http://www.w3.org/2000/svg" width="15" height="16" viewBox="0 0 15 16">
<path d="M12.571 8.304v2.839c0 1.42-1.152 2.571-2.571 2.571h-7.429c-1.42 0-2.571-1.152-2.571-2.571v-7.429c0-1.42 1.152-2.571 2.571-2.571h7.429c0.357 0 0.714 0.071 1.045 0.223 0.080 0.036 0.143 0.116 0.161 0.205 0.018 0.098-0.009 0.188-0.080 0.259l-0.438 0.438c-0.054 0.054-0.134 0.089-0.205 0.089-0.027 0-0.054-0.009-0.080-0.018-0.134-0.036-0.268-0.054-0.402-0.054h-7.429c-0.786 0-1.429 0.643-1.429 1.429v7.429c0 0.786 0.643 1.429 1.429 1.429h7.429c0.786 0 1.429-0.643 1.429-1.429v-2.268c0-0.071 0.027-0.143 0.080-0.196l0.571-0.571c0.063-0.063 0.134-0.089 0.205-0.089 0.036 0 0.071 0.009 0.107 0.027 0.107 0.045 0.179 0.143 0.179 0.259zM14.634 3.938l-7.268 7.268c-0.286 0.286-0.732 0.286-1.018 0l-3.839-3.839c-0.286-0.286-0.286-0.732 0-1.018l0.982-0.982c0.286-0.286 0.732-0.286 1.018 0l2.348 2.348 5.777-5.777c0.286-0.286 0.732-0.286 1.018 0l0.982 0.982c0.286 0.286 0.286 0.732 0 1.018z"></path>
</svg>
