<!-- Generated by IcoMoon.io -->
<svg version="1.1" xmlns="http://www.w3.org/2000/svg" width="13" height="16" viewBox="0 0 13 16">
<path d="M11.589 11.804c0 0.223-0.089 0.446-0.25 0.607l-1.214 1.214c-0.161 0.161-0.384 0.25-0.607 0.25s-0.446-0.089-0.607-0.25l-2.625-2.625-2.625 2.625c-0.161 0.161-0.384 0.25-0.607 0.25s-0.446-0.089-0.607-0.25l-1.214-1.214c-0.161-0.161-0.25-0.384-0.25-0.607s0.089-0.446 0.25-0.607l2.625-2.625-2.625-2.625c-0.161-0.161-0.25-0.384-0.25-0.607s0.089-0.446 0.25-0.607l1.214-1.214c0.161-0.161 0.384-0.25 0.607-0.25s0.446 0.089 0.607 0.25l2.625 2.625 2.625-2.625c0.161-0.161 0.384-0.25 0.607-0.25s0.446 0.089 0.607 0.25l1.214 1.214c0.161 0.161 0.25 0.384 0.25 0.607s-0.089 0.446-0.25 0.607l-2.625 2.625 2.625 2.625c0.161 0.161 0.25 0.384 0.25 0.607z"></path>
</svg>
