<!-- Generated by IcoMoon.io -->
<svg version="1.1" xmlns="http://www.w3.org/2000/svg" width="17" height="16" viewBox="0 0 17 16">
<path d="M5.509 12.491l-0.446 0.446c-0.116 0.116-0.295 0.116-0.411 0l-4.161-4.161c-0.116-0.116-0.116-0.295 0-0.411l4.161-4.161c0.116-0.116 0.295-0.116 0.411 0l0.446 0.446c0.116 0.116 0.116 0.295 0 0.411l-3.509 3.509 3.509 3.509c0.116 0.116 0.116 0.295 0 0.411zM10.786 2.964l-3.33 11.527c-0.045 0.152-0.205 0.241-0.348 0.196l-0.554-0.152c-0.152-0.045-0.241-0.205-0.196-0.357l3.33-11.527c0.045-0.152 0.205-0.241 0.348-0.196l0.554 0.152c0.152 0.045 0.241 0.205 0.196 0.357zM16.652 8.777l-4.161 4.161c-0.116 0.116-0.295 0.116-0.411 0l-0.446-0.446c-0.116-0.116-0.116-0.295 0-0.411l3.509-3.509-3.509-3.509c-0.116-0.116-0.116-0.295 0-0.411l0.446-0.446c0.116-0.116 0.295-0.116 0.411 0l4.161 4.161c0.116 0.116 0.116 0.295 0 0.411z"></path>
</svg>
