<!-- Generated by IcoMoon.io -->
<svg version="1.1" xmlns="http://www.w3.org/2000/svg" width="14" height="16" viewBox="0 0 14 16">
<path d="M9.143 8c0-1.259-1.027-2.286-2.286-2.286s-2.286 1.027-2.286 2.286 1.027 2.286 2.286 2.286 2.286-1.027 2.286-2.286zM13.714 7.027v1.982c0 0.134-0.107 0.295-0.25 0.321l-1.652 0.25c-0.098 0.286-0.205 0.554-0.348 0.813 0.304 0.438 0.625 0.83 0.955 1.232 0.054 0.063 0.089 0.143 0.089 0.223s-0.027 0.143-0.080 0.205c-0.214 0.286-1.42 1.598-1.723 1.598-0.080 0-0.161-0.036-0.232-0.080l-1.232-0.964c-0.259 0.134-0.536 0.25-0.813 0.339-0.063 0.545-0.116 1.125-0.259 1.661-0.036 0.143-0.161 0.25-0.321 0.25h-1.982c-0.161 0-0.304-0.116-0.321-0.268l-0.25-1.643c-0.277-0.089-0.545-0.196-0.804-0.33l-1.259 0.955c-0.063 0.054-0.143 0.080-0.223 0.080s-0.161-0.036-0.223-0.098c-0.473-0.429-1.098-0.982-1.473-1.5-0.045-0.063-0.063-0.134-0.063-0.205 0-0.080 0.027-0.143 0.071-0.205 0.304-0.411 0.634-0.804 0.938-1.223-0.152-0.286-0.277-0.58-0.366-0.884l-1.634-0.241c-0.152-0.027-0.259-0.17-0.259-0.321v-1.982c0-0.134 0.107-0.295 0.241-0.321l1.661-0.25c0.089-0.286 0.205-0.554 0.348-0.821-0.304-0.429-0.625-0.83-0.955-1.232-0.054-0.063-0.089-0.134-0.089-0.214s0.036-0.143 0.080-0.205c0.214-0.295 1.42-1.598 1.723-1.598 0.080 0 0.161 0.036 0.232 0.089l1.232 0.955c0.259-0.134 0.536-0.25 0.813-0.339 0.063-0.545 0.116-1.125 0.259-1.661 0.036-0.143 0.161-0.25 0.321-0.25h1.982c0.161 0 0.304 0.116 0.321 0.268l0.25 1.643c0.277 0.089 0.545 0.196 0.804 0.33l1.268-0.955c0.054-0.054 0.134-0.080 0.214-0.080s0.161 0.036 0.223 0.089c0.473 0.438 1.098 0.991 1.473 1.518 0.045 0.054 0.063 0.125 0.063 0.196 0 0.080-0.027 0.143-0.071 0.205-0.304 0.411-0.634 0.804-0.938 1.223 0.152 0.286 0.277 0.58 0.366 0.875l1.634 0.25c0.152 0.027 0.259 0.17 0.259 0.321z"></path>
</svg>
