<!-- Generated by IcoMoon.io -->
<svg version="1.1" xmlns="http://www.w3.org/2000/svg" width="17" height="16" viewBox="0 0 17 16">
<path d="M16 8.857v-7.429c0-0.152-0.134-0.286-0.286-0.286h-14.286c-0.152 0-0.286 0.134-0.286 0.286v7.429c0 0.152 0.134 0.286 0.286 0.286h14.286c0.152 0 0.286-0.134 0.286-0.286zM17.143 1.429v9.714c0 0.786-0.643 1.429-1.429 1.429h-4.857c0 0.759 0.571 1.402 0.571 1.714s-0.259 0.571-0.571 0.571h-4.571c-0.313 0-0.571-0.259-0.571-0.571 0-0.33 0.571-0.938 0.571-1.714h-4.857c-0.786 0-1.429-0.643-1.429-1.429v-9.714c0-0.786 0.643-1.429 1.429-1.429h14.286c0.786 0 1.429 0.643 1.429 1.429z"></path>
</svg>
