<!-- Generated by IcoMoon.io -->
<svg version="1.1" xmlns="http://www.w3.org/2000/svg" width="16" height="16" viewBox="0 0 16 16">
<path d="M9.143 12.277v-1.696c0-0.161-0.125-0.295-0.286-0.295h-1.714c-0.161 0-0.286 0.134-0.286 0.295v1.696c0 0.161 0.125 0.295 0.286 0.295h1.714c0.161 0 0.286-0.134 0.286-0.295zM9.125 8.938l0.161-4.098c0-0.054-0.027-0.125-0.089-0.17-0.054-0.045-0.134-0.098-0.214-0.098h-1.964c-0.080 0-0.161 0.054-0.214 0.098-0.063 0.045-0.089 0.134-0.089 0.188l0.152 4.080c0 0.116 0.134 0.205 0.304 0.205h1.652c0.161 0 0.295-0.089 0.304-0.205zM9 0.598l6.857 12.571c0.196 0.348 0.188 0.777-0.018 1.125s-0.58 0.563-0.982 0.563h-13.714c-0.402 0-0.777-0.214-0.982-0.563s-0.214-0.777-0.018-1.125l6.857-12.571c0.196-0.366 0.58-0.598 1-0.598s0.804 0.232 1 0.598z"></path>
</svg>
