<!-- Generated by IcoMoon.io -->
<svg version="1.1" xmlns="http://www.w3.org/2000/svg" width="456" height="448" viewBox="0 0 456 448">
<g id="icomoon-ignore">
</g>
<path d="M424.5 23.5c31.25 31.25 31.5 82 0 113l-56.25 55.75 26 26c3.25 3.25 3.25 8.25 0 11.5l-52.5 52.5c-3.25 3.25-8.25 3.25-11.5 0l-26.25-26.25-150.75 150.75c-6 6-14 9.25-22.5 9.25h-50.75l-64 32-16-16 32-64v-50.75c0-8.5 3.25-16.5 9.25-22.5l150.75-150.75-26.25-26.25c-3.25-3.25-3.25-8.25 0-11.5l52.5-52.5c3.25-3.25 8.25-3.25 11.5 0l26 26 55.75-56.25c31-31.5 81.75-31.25 113 0zM128 368l144-144-48-48-144 144v48h48z"></path>
</svg>
