<!-- Generated by IcoMoon.io -->
<svg version="1.1" xmlns="http://www.w3.org/2000/svg" width="17" height="16" viewBox="0 0 17 16">
<path d="M3.429 14.286v-1.143c0-0.313-0.259-0.571-0.571-0.571h-1.143c-0.313 0-0.571 0.259-0.571 0.571v1.143c0 0.313 0.259 0.571 0.571 0.571h1.143c0.313 0 0.571-0.259 0.571-0.571zM3.429 10.857v-1.143c0-0.313-0.259-0.571-0.571-0.571h-1.143c-0.313 0-0.571 0.259-0.571 0.571v1.143c0 0.313 0.259 0.571 0.571 0.571h1.143c0.313 0 0.571-0.259 0.571-0.571zM3.429 7.429v-1.143c0-0.313-0.259-0.571-0.571-0.571h-1.143c-0.313 0-0.571 0.259-0.571 0.571v1.143c0 0.313 0.259 0.571 0.571 0.571h1.143c0.313 0 0.571-0.259 0.571-0.571zM12.571 14.286v-4.571c0-0.313-0.259-0.571-0.571-0.571h-6.857c-0.313 0-0.571 0.259-0.571 0.571v4.571c0 0.313 0.259 0.571 0.571 0.571h6.857c0.313 0 0.571-0.259 0.571-0.571zM3.429 4v-1.143c0-0.313-0.259-0.571-0.571-0.571h-1.143c-0.313 0-0.571 0.259-0.571 0.571v1.143c0 0.313 0.259 0.571 0.571 0.571h1.143c0.313 0 0.571-0.259 0.571-0.571zM16 14.286v-1.143c0-0.313-0.259-0.571-0.571-0.571h-1.143c-0.313 0-0.571 0.259-0.571 0.571v1.143c0 0.313 0.259 0.571 0.571 0.571h1.143c0.313 0 0.571-0.259 0.571-0.571zM12.571 7.429v-4.571c0-0.313-0.259-0.571-0.571-0.571h-6.857c-0.313 0-0.571 0.259-0.571 0.571v4.571c0 0.313 0.259 0.571 0.571 0.571h6.857c0.313 0 0.571-0.259 0.571-0.571zM16 10.857v-1.143c0-0.313-0.259-0.571-0.571-0.571h-1.143c-0.313 0-0.571 0.259-0.571 0.571v1.143c0 0.313 0.259 0.571 0.571 0.571h1.143c0.313 0 0.571-0.259 0.571-0.571zM16 7.429v-1.143c0-0.313-0.259-0.571-0.571-0.571h-1.143c-0.313 0-0.571 0.259-0.571 0.571v1.143c0 0.313 0.259 0.571 0.571 0.571h1.143c0.313 0 0.571-0.259 0.571-0.571zM16 4v-1.143c0-0.313-0.259-0.571-0.571-0.571h-1.143c-0.313 0-0.571 0.259-0.571 0.571v1.143c0 0.313 0.259 0.571 0.571 0.571h1.143c0.313 0 0.571-0.259 0.571-0.571zM17.143 2.571v12c0 0.786-0.643 1.429-1.429 1.429h-14.286c-0.786 0-1.429-0.643-1.429-1.429v-12c0-0.786 0.643-1.429 1.429-1.429h14.286c0.786 0 1.429 0.643 1.429 1.429z"></path>
</svg>
