<!-- Generated by IcoMoon.io -->
<svg version="1.1" xmlns="http://www.w3.org/2000/svg" width="17" height="16" viewBox="0 0 17 16">
<path d="M14.857 9.33v-5.5c-0.714 0.384-1.714 0.813-2.732 0.813v0c-0.473 0-0.911-0.089-1.295-0.286-0.955-0.473-1.991-0.929-3.232-0.929-1.152 0-2.563 0.563-3.598 1.134v5.348c1.179-0.545 2.679-1.009 3.866-1.009 1.375 0 2.268 0.455 3.223 0.929l0.25 0.125c0.25 0.125 0.554 0.196 0.902 0.196 0.991 0 2.063-0.527 2.616-0.821zM2.857 2.286c0 0.42-0.232 0.786-0.571 0.982v11.304c0 0.161-0.125 0.286-0.286 0.286h-0.571c-0.161 0-0.286-0.125-0.286-0.286v-11.304c-0.339-0.196-0.571-0.563-0.571-0.982 0-0.634 0.509-1.143 1.143-1.143s1.143 0.509 1.143 1.143zM16 2.857v6.813c0 0.214-0.125 0.411-0.313 0.509-0.036 0.018-0.089 0.045-0.152 0.080-0.571 0.304-1.92 1.036-3.295 1.036-0.527 0-1-0.107-1.411-0.313l-0.25-0.125c-0.902-0.455-1.616-0.813-2.714-0.813-1.286 0-3.098 0.67-4.143 1.304-0.089 0.054-0.196 0.080-0.295 0.080s-0.196-0.027-0.286-0.071c-0.179-0.107-0.286-0.295-0.286-0.5v-6.625c0-0.196 0.107-0.384 0.277-0.491 0.571-0.339 2.589-1.455 4.464-1.455 1.491 0 2.705 0.545 3.732 1.045 0.232 0.116 0.5 0.17 0.795 0.17 1.054 0 2.214-0.67 2.768-1 0.116-0.063 0.214-0.116 0.277-0.152 0.179-0.089 0.384-0.080 0.554 0.018 0.17 0.107 0.277 0.295 0.277 0.491z"></path>
</svg>
