<!-- Generated by IcoMoon.io -->
<svg version="1.1" xmlns="http://www.w3.org/2000/svg" width="17" height="16" viewBox="0 0 17 16">
<path d="M5.714 5.143c0 0.946-0.768 1.714-1.714 1.714s-1.714-0.768-1.714-1.714 0.768-1.714 1.714-1.714 1.714 0.768 1.714 1.714zM14.857 8.571v4h-12.571v-1.714l2.857-2.857 1.429 1.429 4.571-4.571zM15.714 2.286h-14.286c-0.152 0-0.286 0.134-0.286 0.286v10.857c0 0.152 0.134 0.286 0.286 0.286h14.286c0.152 0 0.286-0.134 0.286-0.286v-10.857c0-0.152-0.134-0.286-0.286-0.286zM17.143 2.571v10.857c0 0.786-0.643 1.429-1.429 1.429h-14.286c-0.786 0-1.429-0.643-1.429-1.429v-10.857c0-0.786 0.643-1.429 1.429-1.429h14.286c0.786 0 1.429 0.643 1.429 1.429z"></path>
</svg>
