<!-- Generated by IcoMoon.io -->
<svg version="1.1" xmlns="http://www.w3.org/2000/svg" width="16" height="16" viewBox="0 0 16 16">
<path d="M3.429 10.571v0.571c0 0.152-0.134 0.286-0.286 0.286h-0.571c-0.152 0-0.286-0.134-0.286-0.286v-0.571c0-0.152 0.134-0.286 0.286-0.286h0.571c0.152 0 0.286 0.134 0.286 0.286zM3.429 8.286v0.571c0 0.152-0.134 0.286-0.286 0.286h-0.571c-0.152 0-0.286-0.134-0.286-0.286v-0.571c0-0.152 0.134-0.286 0.286-0.286h0.571c0.152 0 0.286 0.134 0.286 0.286zM3.429 6v0.571c0 0.152-0.134 0.286-0.286 0.286h-0.571c-0.152 0-0.286-0.134-0.286-0.286v-0.571c0-0.152 0.134-0.286 0.286-0.286h0.571c0.152 0 0.286 0.134 0.286 0.286zM13.714 10.571v0.571c0 0.152-0.134 0.286-0.286 0.286h-8.571c-0.152 0-0.286-0.134-0.286-0.286v-0.571c0-0.152 0.134-0.286 0.286-0.286h8.571c0.152 0 0.286 0.134 0.286 0.286zM13.714 8.286v0.571c0 0.152-0.134 0.286-0.286 0.286h-8.571c-0.152 0-0.286-0.134-0.286-0.286v-0.571c0-0.152 0.134-0.286 0.286-0.286h8.571c0.152 0 0.286 0.134 0.286 0.286zM13.714 6v0.571c0 0.152-0.134 0.286-0.286 0.286h-8.571c-0.152 0-0.286-0.134-0.286-0.286v-0.571c0-0.152 0.134-0.286 0.286-0.286h8.571c0.152 0 0.286 0.134 0.286 0.286zM14.857 12.286v-7.429c0-0.152-0.134-0.286-0.286-0.286h-13.143c-0.152 0-0.286 0.134-0.286 0.286v7.429c0 0.152 0.134 0.286 0.286 0.286h13.143c0.152 0 0.286-0.134 0.286-0.286zM16 2.571v9.714c0 0.786-0.643 1.429-1.429 1.429h-13.143c-0.786 0-1.429-0.643-1.429-1.429v-9.714c0-0.786 0.643-1.429 1.429-1.429h13.143c0.786 0 1.429 0.643 1.429 1.429z"></path>
</svg>
