<!-- Generated by IcoMoon.io -->
<svg version="1.1" xmlns="http://www.w3.org/2000/svg" width="16" height="16" viewBox="0 0 16 16">
<path d="M2.286 11.714v1.714c0 0.152-0.134 0.286-0.286 0.286h-1.714c-0.152 0-0.286-0.134-0.286-0.286v-1.714c0-0.152 0.134-0.286 0.286-0.286h1.714c0.152 0 0.286 0.134 0.286 0.286zM2.286 8.286v1.714c0 0.152-0.134 0.286-0.286 0.286h-1.714c-0.152 0-0.286-0.134-0.286-0.286v-1.714c0-0.152 0.134-0.286 0.286-0.286h1.714c0.152 0 0.286 0.134 0.286 0.286zM2.286 4.857v1.714c0 0.152-0.134 0.286-0.286 0.286h-1.714c-0.152 0-0.286-0.134-0.286-0.286v-1.714c0-0.152 0.134-0.286 0.286-0.286h1.714c0.152 0 0.286 0.134 0.286 0.286zM16 11.714v1.714c0 0.152-0.134 0.286-0.286 0.286h-12c-0.152 0-0.286-0.134-0.286-0.286v-1.714c0-0.152 0.134-0.286 0.286-0.286h12c0.152 0 0.286 0.134 0.286 0.286zM2.286 1.429v1.714c0 0.152-0.134 0.286-0.286 0.286h-1.714c-0.152 0-0.286-0.134-0.286-0.286v-1.714c0-0.152 0.134-0.286 0.286-0.286h1.714c0.152 0 0.286 0.134 0.286 0.286zM16 8.286v1.714c0 0.152-0.134 0.286-0.286 0.286h-12c-0.152 0-0.286-0.134-0.286-0.286v-1.714c0-0.152 0.134-0.286 0.286-0.286h12c0.152 0 0.286 0.134 0.286 0.286zM16 4.857v1.714c0 0.152-0.134 0.286-0.286 0.286h-12c-0.152 0-0.286-0.134-0.286-0.286v-1.714c0-0.152 0.134-0.286 0.286-0.286h12c0.152 0 0.286 0.134 0.286 0.286zM16 1.429v1.714c0 0.152-0.134 0.286-0.286 0.286h-12c-0.152 0-0.286-0.134-0.286-0.286v-1.714c0-0.152 0.134-0.286 0.286-0.286h12c0.152 0 0.286 0.134 0.286 0.286z"></path>
</svg>
