<!-- Generated by IcoMoon.io -->
<svg version="1.1" xmlns="http://www.w3.org/2000/svg" width="16" height="16" viewBox="0 0 16 16">
<path d="M3.402 14.464c0 0.982-0.768 1.536-1.696 1.536-0.563 0-1.134-0.188-1.536-0.589l0.509-0.786c0.241 0.223 0.607 0.402 0.946 0.402 0.313 0 0.643-0.152 0.643-0.509 0-0.5-0.571-0.527-0.938-0.5l-0.232-0.5c0.321-0.411 0.616-0.866 1-1.214v-0.009c-0.286 0-0.58 0.018-0.866 0.018v0.473h-0.946v-1.357h2.973v0.786l-0.848 1.027c0.598 0.143 0.991 0.607 0.991 1.223zM3.42 8.866v1.42h-3.232c-0.027-0.161-0.054-0.321-0.054-0.482 0-1.652 2.018-1.902 2.018-2.652 0-0.304-0.188-0.464-0.482-0.464-0.313 0-0.571 0.268-0.723 0.518l-0.759-0.527c0.295-0.616 0.902-0.964 1.58-0.964 0.83 0 1.545 0.491 1.545 1.375 0 1.321-1.938 1.616-1.964 2.313h1.134v-0.536h0.938zM16 11.714v1.714c0 0.152-0.134 0.286-0.286 0.286h-10.857c-0.161 0-0.286-0.134-0.286-0.286v-1.714c0-0.161 0.125-0.286 0.286-0.286h10.857c0.152 0 0.286 0.125 0.286 0.286zM3.429 3.688v0.884h-2.991v-0.884h0.955c0-0.723 0.009-1.446 0.009-2.17v-0.107h-0.018c-0.098 0.196-0.277 0.33-0.446 0.482l-0.634-0.679 1.214-1.134h0.946v3.607h0.964zM16 7.143v1.714c0 0.152-0.134 0.286-0.286 0.286h-10.857c-0.161 0-0.286-0.134-0.286-0.286v-1.714c0-0.161 0.125-0.286 0.286-0.286h10.857c0.152 0 0.286 0.125 0.286 0.286zM16 2.571v1.714c0 0.152-0.134 0.286-0.286 0.286h-10.857c-0.161 0-0.286-0.134-0.286-0.286v-1.714c0-0.152 0.125-0.286 0.286-0.286h10.857c0.152 0 0.286 0.134 0.286 0.286z"></path>
</svg>
