<!-- Generated by IcoMoon.io -->
<svg version="1.1" xmlns="http://www.w3.org/2000/svg" width="16" height="16" viewBox="0 0 16 16">
<path d="M14.42 0c0.813 0 1.563 0.607 1.563 1.455 0 0.473-0.188 0.929-0.402 1.348-0.696 1.321-3.036 5.688-4.152 6.714-0.545 0.509-1.188 0.813-1.946 0.813-1.509 0-2.741-1.286-2.741-2.786 0-0.714 0.295-1.411 0.821-1.893l5.696-5.17c0.313-0.286 0.723-0.482 1.161-0.482zM6.304 9.232c0.464 0.902 1.313 1.58 2.295 1.839l0.009 0.634c0.054 2.545-1.714 4.295-4.268 4.295-3.027 0-4.339-2.411-4.339-5.152 0.33 0.223 1.482 1.143 1.857 1.143 0.223 0 0.411-0.125 0.491-0.33 0.759-1.982 1.946-2.339 3.955-2.429z"></path>
</svg>
