<!-- Generated by IcoMoon.io -->
<svg version="1.1" xmlns="http://www.w3.org/2000/svg" width="15" height="16" viewBox="0 0 15 16">
<path d="M4.571 12.286v-1.714c0-0.161-0.125-0.286-0.286-0.286h-2.857c-0.161 0-0.286 0.125-0.286 0.286v1.714c0 0.161 0.125 0.286 0.286 0.286h2.857c0.161 0 0.286-0.125 0.286-0.286zM4.571 8.857v-1.714c0-0.161-0.125-0.286-0.286-0.286h-2.857c-0.161 0-0.286 0.125-0.286 0.286v1.714c0 0.161 0.125 0.286 0.286 0.286h2.857c0.161 0 0.286-0.125 0.286-0.286zM9.143 12.286v-1.714c0-0.161-0.125-0.286-0.286-0.286h-2.857c-0.161 0-0.286 0.125-0.286 0.286v1.714c0 0.161 0.125 0.286 0.286 0.286h2.857c0.161 0 0.286-0.125 0.286-0.286zM4.571 5.429v-1.714c0-0.161-0.125-0.286-0.286-0.286h-2.857c-0.161 0-0.286 0.125-0.286 0.286v1.714c0 0.161 0.125 0.286 0.286 0.286h2.857c0.161 0 0.286-0.125 0.286-0.286zM9.143 8.857v-1.714c0-0.161-0.125-0.286-0.286-0.286h-2.857c-0.161 0-0.286 0.125-0.286 0.286v1.714c0 0.161 0.125 0.286 0.286 0.286h2.857c0.161 0 0.286-0.125 0.286-0.286zM13.714 12.286v-1.714c0-0.161-0.125-0.286-0.286-0.286h-2.857c-0.161 0-0.286 0.125-0.286 0.286v1.714c0 0.161 0.125 0.286 0.286 0.286h2.857c0.161 0 0.286-0.125 0.286-0.286zM9.143 5.429v-1.714c0-0.161-0.125-0.286-0.286-0.286h-2.857c-0.161 0-0.286 0.125-0.286 0.286v1.714c0 0.161 0.125 0.286 0.286 0.286h2.857c0.161 0 0.286-0.125 0.286-0.286zM13.714 8.857v-1.714c0-0.161-0.125-0.286-0.286-0.286h-2.857c-0.161 0-0.286 0.125-0.286 0.286v1.714c0 0.161 0.125 0.286 0.286 0.286h2.857c0.161 0 0.286-0.125 0.286-0.286zM13.714 5.429v-1.714c0-0.161-0.125-0.286-0.286-0.286h-2.857c-0.161 0-0.286 0.125-0.286 0.286v1.714c0 0.161 0.125 0.286 0.286 0.286h2.857c0.161 0 0.286-0.125 0.286-0.286zM14.857 2.571v9.714c0 0.786-0.643 1.429-1.429 1.429h-12c-0.786 0-1.429-0.643-1.429-1.429v-9.714c0-0.786 0.643-1.429 1.429-1.429h12c0.786 0 1.429 0.643 1.429 1.429z"></path>
</svg>
