<!-- Generated by IcoMoon.io -->
<svg version="1.1" xmlns="http://www.w3.org/2000/svg" width="16" height="16" viewBox="0 0 16 16">
<path d="M4.571 11.143v1.714c0 0.473-0.384 0.857-0.857 0.857h-2.857c-0.473 0-0.857-0.384-0.857-0.857v-1.714c0-0.473 0.384-0.857 0.857-0.857h2.857c0.473 0 0.857 0.384 0.857 0.857zM4.571 6.571v1.714c0 0.473-0.384 0.857-0.857 0.857h-2.857c-0.473 0-0.857-0.384-0.857-0.857v-1.714c0-0.473 0.384-0.857 0.857-0.857h2.857c0.473 0 0.857 0.384 0.857 0.857zM16 11.143v1.714c0 0.473-0.384 0.857-0.857 0.857h-8.571c-0.473 0-0.857-0.384-0.857-0.857v-1.714c0-0.473 0.384-0.857 0.857-0.857h8.571c0.473 0 0.857 0.384 0.857 0.857zM4.571 2v1.714c0 0.473-0.384 0.857-0.857 0.857h-2.857c-0.473 0-0.857-0.384-0.857-0.857v-1.714c0-0.473 0.384-0.857 0.857-0.857h2.857c0.473 0 0.857 0.384 0.857 0.857zM16 6.571v1.714c0 0.473-0.384 0.857-0.857 0.857h-8.571c-0.473 0-0.857-0.384-0.857-0.857v-1.714c0-0.473 0.384-0.857 0.857-0.857h8.571c0.473 0 0.857 0.384 0.857 0.857zM16 2v1.714c0 0.473-0.384 0.857-0.857 0.857h-8.571c-0.473 0-0.857-0.384-0.857-0.857v-1.714c0-0.473 0.384-0.857 0.857-0.857h8.571c0.473 0 0.857 0.384 0.857 0.857z"></path>
</svg>
