<!-- Generated by IcoMoon.io -->
<svg version="1.1" xmlns="http://www.w3.org/2000/svg" width="18" height="16" viewBox="0 0 18 16">
<path d="M2.286 13.714h6.857v-4.571h-6.857v4.571zM11.429 9.143h4.571v-6.857h-6.857v2.286h0.857c0.786 0 1.429 0.643 1.429 1.429v3.143zM18.286 1.429v8.571c0 0.786-0.643 1.429-1.429 1.429h-5.429v3.143c0 0.786-0.643 1.429-1.429 1.429h-8.571c-0.786 0-1.429-0.643-1.429-1.429v-8.571c0-0.786 0.643-1.429 1.429-1.429h5.429v-3.143c0-0.786 0.643-1.429 1.429-1.429h8.571c0.786 0 1.429 0.643 1.429 1.429z"></path>
</svg>
